<svg width="22" height="22" viewBox="0 0 22 22" fill="none" xmlns="http://www.w3.org/2000/svg">
<g clip-path="url(#clip0_418_1876)">
<path d="M10.9997 1.83325C5.93967 1.83325 1.83301 5.93992 1.83301 10.9999C1.83301 16.0599 5.93967 20.1666 10.9997 20.1666C16.0597 20.1666 20.1663 16.0599 20.1663 10.9999C20.1663 5.93992 16.0597 1.83325 10.9997 1.83325ZM6.48051 16.7566C6.87467 15.9316 9.27634 15.1249 10.9997 15.1249C12.723 15.1249 15.1338 15.9316 15.5188 16.7566C14.2722 17.7466 12.7047 18.3333 10.9997 18.3333C9.29467 18.3333 7.72717 17.7466 6.48051 16.7566ZM16.8297 15.4274C15.5188 13.8324 12.338 13.2916 10.9997 13.2916C9.66134 13.2916 6.48051 13.8324 5.16967 15.4274C4.23467 14.1991 3.66634 12.6683 3.66634 10.9999C3.66634 6.95742 6.95717 3.66659 10.9997 3.66659C15.0422 3.66659 18.333 6.95742 18.333 10.9999C18.333 12.6683 17.7647 14.1991 16.8297 15.4274ZM10.9997 5.49992C9.22134 5.49992 7.79134 6.92992 7.79134 8.70825C7.79134 10.4866 9.22134 11.9166 10.9997 11.9166C12.778 11.9166 14.208 10.4866 14.208 8.70825C14.208 6.92992 12.778 5.49992 10.9997 5.49992ZM10.9997 10.0833C10.2388 10.0833 9.62467 9.46908 9.62467 8.70825C9.62467 7.94742 10.2388 7.33325 10.9997 7.33325C11.7605 7.33325 12.3747 7.94742 12.3747 8.70825C12.3747 9.46908 11.7605 10.0833 10.9997 10.0833Z" fill="#8E8E8F"/>
</g>
<defs>
<clipPath id="clip0_418_1876">
<rect width="22" height="22" fill="white"/>
</clipPath>
</defs>
</svg>
