<svg width="15" height="19" viewBox="0 0 15 19" fill="none" xmlns="http://www.w3.org/2000/svg">
<path d="M14.5 16.1413V6.72625C14.5 6.2625 14.3162 5.81625 13.9837 5.4925L9.7575 1.26625C9.43375 0.93375 8.9875 0.75 8.52375 0.75H2.25C1.2875 0.75 0.50875 1.5375 0.50875 2.5L0.5 16.5C0.5 17.4625 1.27875 18.25 2.24125 18.25H12.75C13.1438 18.25 13.4938 18.1187 13.7913 17.9L9.915 14.0238C9.1625 14.5138 8.26125 14.7937 7.29 14.7413C5.21625 14.645 3.44 13.0262 3.16 10.97C2.775 8.03875 5.30375 5.5625 8.26125 6.06125C9.9675 6.35 11.385 7.68 11.7613 9.36875C12.05 10.6463 11.77 11.8363 11.1488 12.7812L14.5 16.1413ZM4.875 10.375C4.875 11.8275 6.0475 13 7.5 13C8.9525 13 10.125 11.8275 10.125 10.375C10.125 8.9225 8.9525 7.75 7.5 7.75C6.0475 7.75 4.875 8.9225 4.875 10.375Z" fill="#45AC60"/>
</svg>
