<svg width="24" height="25" viewBox="0 0 24 25" fill="none" xmlns="http://www.w3.org/2000/svg">
<g clip-path="url(#clip0_341_3389)">
<path d="M5 13.6914H16.17L11.29 18.5714C10.9 18.9614 10.9 19.6014 11.29 19.9914C11.68 20.3814 12.31 20.3814 12.7 19.9914L19.29 13.4014C19.68 13.0114 19.68 12.3814 19.29 11.9914L12.71 5.39138C12.32 5.00138 11.69 5.00138 11.3 5.39138C10.91 5.78138 10.91 6.41138 11.3 6.80138L16.17 11.6914H5C4.45 11.6914 4 12.1414 4 12.6914C4 13.2414 4.45 13.6914 5 13.6914Z" fill="#323232"/>
</g>
<defs>
<clipPath id="clip0_341_3389">
<rect width="24" height="24" fill="white" transform="translate(0 0.691406)"/>
</clipPath>
</defs>
</svg>
