<svg width="32" height="32" viewBox="0 0 32 32" fill="none" xmlns="http://www.w3.org/2000/svg">
<path d="M16.9427 3.05744C16.819 2.93351 16.6721 2.83519 16.5103 2.76811C16.3485 2.70103 16.1752 2.6665 16 2.6665C15.8249 2.6665 15.6515 2.70103 15.4898 2.76811C15.328 2.83519 15.1811 2.93351 15.0574 3.05744L3.05737 15.0574C2.87096 15.2439 2.74402 15.4815 2.6926 15.7401C2.64117 15.9987 2.66758 16.2667 2.76847 16.5103C2.86936 16.7539 3.04022 16.9621 3.25943 17.1086C3.47864 17.2552 3.73637 17.3334 4.00004 17.3334H5.33337V26.6668C5.33337 28.1374 6.52937 29.3334 8.00004 29.3334H24C25.4707 29.3334 26.6667 28.1374 26.6667 26.6668V17.3334H28C28.264 17.334 28.5222 17.2562 28.7418 17.1098C28.9614 16.9634 29.1326 16.755 29.2336 16.5111C29.3346 16.2673 29.3609 15.9989 29.3091 15.7401C29.2573 15.4813 29.1298 15.2437 28.9427 15.0574L16.9427 3.05744ZM24.0014 26.6668H8.00004V13.8854L16 5.88544L24 13.8854V20.0001L24.0014 26.6668Z" fill="#8E8E8F"/>
<path d="M17.3337 13.3333H14.667V17.3333H10.667V19.9999H14.667V23.9999H17.3337V19.9999H21.3337V17.3333H17.3337V13.3333Z" fill="#8E8E8F"/>
</svg>
