<svg width="24" height="24" viewBox="0 0 24 24" fill="none" xmlns="http://www.w3.org/2000/svg">
<path d="M1.33333 3.33334C1.33333 2.22877 2.22876 1.33333 3.33333 1.33333H20.6667C21.7712 1.33333 22.6667 2.22876 22.6667 3.33333V20.6667C22.6667 21.7712 21.7712 22.6667 20.6667 22.6667H3.33334C2.22877 22.6667 1.33333 21.7712 1.33333 20.6667V3.33334Z" fill="white"/>
<path d="M21.3333 0H2.66667C1.2 0 0 1.2 0 2.66667V21.3333C0 22.8 1.2 24 2.66667 24H21.3333C22.8 24 24 22.8 24 21.3333V2.66667C24 1.2 22.8 0 21.3333 0ZM10.28 17.72C9.76 18.24 8.92 18.24 8.4 17.72L3.61333 12.9333C3.09333 12.4133 3.09333 11.5733 3.61333 11.0533C4.13333 10.5333 4.97333 10.5333 5.49333 11.0533L7.91912 13.4791C8.70017 14.2602 9.9665 14.2602 10.7475 13.4791L18.5067 5.72C19.0267 5.2 19.8667 5.2 20.3867 5.72C20.9067 6.24 20.9067 7.08 20.3867 7.6L10.28 17.72Z" fill="#45AC60"/>
</svg>
