<svg width="31" height="31" viewBox="0 0 31 31" fill="none" xmlns="http://www.w3.org/2000/svg">
<path d="M15.485 0.692383C7.205 0.692383 0.5 7.41238 0.5 15.6924C0.5 23.9724 7.205 30.6924 15.485 30.6924C23.78 30.6924 30.5 23.9724 30.5 15.6924C30.5 7.41238 23.78 0.692383 15.485 0.692383ZM15.5 27.6924C8.87 27.6924 3.5 22.3224 3.5 15.6924C3.5 9.06238 8.87 3.69238 15.5 3.69238C22.13 3.69238 27.5 9.06238 27.5 15.6924C27.5 22.3224 22.13 27.6924 15.5 27.6924ZM15.17 8.19238H15.08C14.48 8.19238 14 8.67238 14 9.27238V16.3524C14 16.8774 14.27 17.3724 14.735 17.6424L20.96 21.3774C21.47 21.6774 22.13 21.5274 22.43 21.0174C22.745 20.5074 22.58 19.8324 22.055 19.5324L16.25 16.0824V9.27238C16.25 8.67238 15.77 8.19238 15.17 8.19238Z" fill="#45AC60"/>
</svg>
