<svg width="40" height="40" viewBox="0 0 40 40" fill="none" xmlns="http://www.w3.org/2000/svg">
<rect x="0.5" y="0.5" width="39" height="39" rx="19.5" stroke="#45AC60"/>
<path d="M20 10C14.5 10 10 14.508 10 20.0602C10 25.0803 13.66 29.247 18.44 30V22.9719H15.9V20.0602H18.44V17.8414C18.44 15.3213 19.93 13.9357 22.22 13.9357C23.31 13.9357 24.45 14.1265 24.45 14.1265V16.6064H23.19C21.95 16.6064 21.56 17.3795 21.56 18.1727V20.0602H24.34L23.89 22.9719H21.56V30C23.9164 29.6264 26.0622 28.4192 27.6099 26.5964C29.1576 24.7737 30.0053 22.4555 30 20.0602C30 14.508 25.5 10 20 10Z" fill="#45AC60"/>
</svg>
