<svg width="23" height="23" viewBox="0 0 23 23" fill="none" xmlns="http://www.w3.org/2000/svg">
<path fill-rule="evenodd" clip-rule="evenodd" d="M2.33329 11.4998C2.33329 6.43723 6.43735 2.33317 11.5 2.33317C16.5626 2.33317 20.6666 6.43723 20.6666 11.4998C20.6666 16.5624 16.5626 20.6665 11.5 20.6665C6.43735 20.6665 2.33329 16.5624 2.33329 11.4998ZM11.5 0.666504C5.51688 0.666504 0.666626 5.51675 0.666626 11.4998C0.666626 17.4829 5.51688 22.3332 11.5 22.3332C17.483 22.3332 22.3333 17.4829 22.3333 11.4998C22.3333 5.51675 17.483 0.666504 11.5 0.666504ZM11.4301 15.1942L17.2196 9.19421L15.7803 7.80547L10.6148 13.1589L7.11365 10.4376L5.88627 12.0167L10.0968 15.2894L10.8062 15.8408L11.4301 15.1942Z" fill="#2B9B5B"/>
</svg>
