<svg width="32" height="32" viewBox="0 0 32 32" fill="none" xmlns="http://www.w3.org/2000/svg">
<path d="M20 2.66663C20.7072 2.66663 21.3855 2.94758 21.8856 3.44767C22.3857 3.94777 22.6667 4.62605 22.6667 5.33329V12H25.3333C26.0406 12 26.7189 12.2809 27.219 12.781C27.719 13.2811 28 13.9594 28 14.6666V27.8666C28 28.0592 27.9621 28.2499 27.8884 28.4279C27.8146 28.6058 27.7066 28.7675 27.5704 28.9037C27.4342 29.0399 27.2725 29.1479 27.0946 29.2216C26.9167 29.2954 26.7259 29.3333 26.5333 29.3333H5.46667C5.27406 29.3333 5.08334 29.2954 4.9054 29.2216C4.72745 29.1479 4.56577 29.0399 4.42958 28.9037C4.29338 28.7675 4.18535 28.6058 4.11164 28.4279C4.03794 28.2499 4 28.0592 4 27.8666V5.33329C4 4.62605 4.28095 3.94777 4.78105 3.44767C5.28115 2.94758 5.95942 2.66663 6.66667 2.66663H20ZM20 5.33329H6.66667V26.6666H9.33333V22.6666C9.33333 21.6058 9.75476 20.5883 10.5049 19.8382C11.2551 19.0881 12.2725 18.6666 13.3333 18.6666C14.3942 18.6666 15.4116 19.0881 16.1618 19.8382C16.9119 20.5883 17.3333 21.6058 17.3333 22.6666V26.6666H20V5.33329ZM25.3333 14.6666H22.6667V26.6666H25.3333V14.6666ZM13.3333 21.3333C13.0068 21.3333 12.6916 21.4532 12.4475 21.6702C12.2035 21.8873 12.0475 22.1863 12.0093 22.5106L12 22.6666V26.6666H14.6667V22.6666C14.6667 22.313 14.5262 21.9739 14.2761 21.7238C14.0261 21.4738 13.687 21.3333 13.3333 21.3333ZM13.3333 7.99996C13.687 7.99996 14.0261 8.14044 14.2761 8.39048C14.5262 8.64053 14.6667 8.97967 14.6667 9.33329V10.6666H16C16.3536 10.6666 16.6928 10.8071 16.9428 11.0571C17.1929 11.3072 17.3333 11.6463 17.3333 12C17.3333 12.3536 17.1929 12.6927 16.9428 12.9428C16.6928 13.1928 16.3536 13.3333 16 13.3333H14.6667V14.6666C14.6667 15.0202 14.5262 15.3594 14.2761 15.6094C14.0261 15.8595 13.687 16 13.3333 16C12.9797 16 12.6406 15.8595 12.3905 15.6094C12.1405 15.3594 12 15.0202 12 14.6666V13.3333H10.6667C10.313 13.3333 9.97391 13.1928 9.72386 12.9428C9.47381 12.6927 9.33333 12.3536 9.33333 12C9.33333 11.6463 9.47381 11.3072 9.72386 11.0571C9.97391 10.8071 10.313 10.6666 10.6667 10.6666H12V9.33329C12 8.97967 12.1405 8.64053 12.3905 8.39048C12.6406 8.14044 12.9797 7.99996 13.3333 7.99996Z" fill="#8E8E8F"/>
</svg>
