<svg width="25" height="25" viewBox="0 0 33 29" fill="none" xmlns="http://www.w3.org/2000/svg">
  <path d="M12 19.1923C7.995 19.1923 0 21.2023 0 25.1923V26.6923C0 27.5173 0.675 28.1923 1.5 28.1923H22.5C23.325 28.1923 24 27.5173 24 26.6923V25.1923C24 21.2023 16.005 19.1923 12 19.1923ZM21.705 8.3473C22.185 9.5323 22.185 10.8523 21.705 12.0373C21.42 12.7423 21.54 13.5373 22.08 14.0773L22.125 14.1223C22.995 14.9923 24.48 14.8123 25.05 13.7173C26.19 11.5423 26.19 8.9923 25.02 6.7273C24.45 5.6173 22.95 5.4073 22.065 6.2923L22.05 6.3073C21.54 6.8323 21.42 7.6423 21.705 8.3473ZM27.27 1.0273C26.67 1.6273 26.58 2.5573 27.075 3.2473C30.03 7.3573 30.015 12.8623 27.03 17.1223C26.55 17.7973 26.655 18.7273 27.24 19.3123L27.285 19.3573C28.02 20.0923 29.265 20.0323 29.895 19.2073C34.02 13.8973 34.035 6.6523 29.895 1.1773C29.265 0.352297 28.005 0.292298 27.27 1.0273Z" fill="#45AC60"/>
  <path d="M13 15.1924C16.3137 15.1924 19 12.5061 19 9.19238C19 5.87867 16.3137 3.19238 13 3.19238C9.68629 3.19238 7 5.87867 7 9.19238C7 12.5061 9.68629 15.1924 13 15.1924Z" fill="#45AC60"/>
</svg>
