<svg width="20" height="20" viewBox="0 0 20 20" fill="none" xmlns="http://www.w3.org/2000/svg">
<path d="M10.0002 0.833496C4.94016 0.833496 0.833496 4.94016 0.833496 10.0002C0.833496 15.0602 4.94016 19.1668 10.0002 19.1668C15.0602 19.1668 19.1668 15.0602 19.1668 10.0002C19.1668 4.94016 15.0602 0.833496 10.0002 0.833496ZM5.481 15.7568C5.87516 14.9318 8.27683 14.1252 10.0002 14.1252C11.7235 14.1252 14.1343 14.9318 14.5193 15.7568C13.2727 16.7468 11.7052 17.3335 10.0002 17.3335C8.29516 17.3335 6.72766 16.7468 5.481 15.7568ZM15.8302 14.4277C14.5193 12.8327 11.3385 12.2918 10.0002 12.2918C8.66183 12.2918 5.481 12.8327 4.17016 14.4277C3.23516 13.1993 2.66683 11.6685 2.66683 10.0002C2.66683 5.95766 5.95766 2.66683 10.0002 2.66683C14.0427 2.66683 17.3335 5.95766 17.3335 10.0002C17.3335 11.6685 16.7652 13.1993 15.8302 14.4277ZM10.0002 4.50016C8.22183 4.50016 6.79183 5.93016 6.79183 7.7085C6.79183 9.48683 8.22183 10.9168 10.0002 10.9168C11.7785 10.9168 13.2085 9.48683 13.2085 7.7085C13.2085 5.93016 11.7785 4.50016 10.0002 4.50016ZM10.0002 9.0835C9.23933 9.0835 8.62516 8.46933 8.62516 7.7085C8.62516 6.94766 9.23933 6.3335 10.0002 6.3335C10.761 6.3335 11.3752 6.94766 11.3752 7.7085C11.3752 8.46933 10.761 9.0835 10.0002 9.0835Z" fill="#8E8E8F"/>
</svg>
