<svg width="40" height="40" viewBox="0 0 40 40" fill="none" xmlns="http://www.w3.org/2000/svg">
<rect x="0.5" y="0.5" width="39" height="39" rx="19.5" stroke="#45AC60"/>
<path d="M30 12.3529C29.2639 12.7647 28.4704 13.0353 27.6482 13.1647C28.4895 12.5412 29.1396 11.5529 29.4455 10.3647C28.652 10.9529 27.7725 11.3647 26.8451 11.6C26.0899 10.5882 25.0287 10 23.8241 10C21.5774 10 19.7419 12.2588 19.7419 15.0471C19.7419 15.4471 19.7801 15.8353 19.847 16.2C16.4436 15.9882 13.413 13.9765 11.3958 10.9294C11.0421 11.6706 10.8413 12.5412 10.8413 13.4588C10.8413 15.2118 11.5583 16.7647 12.6673 17.6471C11.9885 17.6471 11.3576 17.4118 10.8031 17.0588C10.8031 17.0588 10.8031 17.0588 10.8031 17.0941C10.8031 19.5412 12.218 21.5882 14.0918 22.0471C13.7476 22.1647 13.3843 22.2235 13.0115 22.2235C12.7533 22.2235 12.4952 22.1882 12.2467 22.1294C12.7629 24.1176 14.2639 25.6 16.0707 25.6353C14.675 27 12.9063 27.8 10.9751 27.8C10.6501 27.8 10.325 27.7765 10 27.7294C11.8164 29.1647 13.9771 30 16.2906 30C23.8241 30 27.9637 22.3059 27.9637 15.6353C27.9637 15.4118 27.9637 15.2 27.9541 14.9765C28.7572 14.2706 29.4455 13.3765 30 12.3529Z" fill="#45AC60"/>
</svg>
