<svg width="23" height="22" viewBox="0 0 23 22" fill="none" xmlns="http://www.w3.org/2000/svg">
<path fill-rule="evenodd" clip-rule="evenodd" d="M2.33317 11C2.33317 5.93741 6.43723 1.83335 11.4998 1.83335C16.5624 1.83335 20.6665 5.93741 20.6665 11C20.6665 16.0626 16.5624 20.1667 11.4998 20.1667C6.43723 20.1667 2.33317 16.0626 2.33317 11ZM11.4998 0.166687C5.51675 0.166687 0.666504 5.01694 0.666504 11C0.666504 16.9831 5.51675 21.8334 11.4998 21.8334C17.4829 21.8334 22.3332 16.9831 22.3332 11C22.3332 5.01694 17.4829 0.166687 11.4998 0.166687ZM11.43 14.6944L17.2195 8.69439L15.7802 7.30565L10.6146 12.6591L7.11353 9.93775L5.88615 11.5168L10.0967 14.7896L10.8061 15.341L11.43 14.6944Z" fill="#2B9B5B"/>
</svg>
