<svg width="24" height="24" viewBox="0 0 24 24" fill="none" xmlns="http://www.w3.org/2000/svg">
<path d="M10.3663 17.3666L18.5913 9.14159L16.958 7.50825L10.3663 14.0999L7.04134 10.7749L5.40801 12.4083L10.3663 17.3666ZM11.9997 23.6666C10.3858 23.6666 8.86912 23.3601 7.44967 22.7473C6.03023 22.1344 4.79551 21.3033 3.74551 20.2541C2.69551 19.2041 1.86445 17.9694 1.25234 16.5499C0.64023 15.1305 0.333786 13.6138 0.333008 11.9999C0.333008 10.386 0.639452 8.86936 1.25234 7.44992C1.86523 6.03047 2.69629 4.79575 3.74551 3.74575C4.79551 2.69575 6.03023 1.8647 7.44967 1.25259C8.86912 0.640474 10.3858 0.33403 11.9997 0.333252C13.6136 0.333252 15.1302 0.639697 16.5497 1.25259C17.9691 1.86547 19.2038 2.69653 20.2538 3.74575C21.3038 4.79575 22.1353 6.03047 22.7482 7.44992C23.3611 8.86936 23.6671 10.386 23.6663 11.9999C23.6663 13.6138 23.3599 15.1305 22.747 16.5499C22.1341 17.9694 21.3031 19.2041 20.2538 20.2541C19.2038 21.3041 17.9691 22.1355 16.5497 22.7484C15.1302 23.3613 13.6136 23.6674 11.9997 23.6666Z" fill="#45AC60"/>
</svg>
