<svg width="20" height="16" viewBox="0 0 20 16" fill="none" xmlns="http://www.w3.org/2000/svg">
<path d="M2.66634 15.3334C2.16218 15.3334 1.73043 15.1537 1.37109 14.7944C1.01176 14.4351 0.832398 14.0036 0.833009 13.5001V10.7501H2.66634V13.5001H17.333V2.50008H2.66634V5.25008H0.833009V2.50008C0.833009 1.99592 1.01268 1.56417 1.37201 1.20483C1.73134 0.845499 2.16279 0.666138 2.66634 0.66675H17.333C17.8372 0.66675 18.2689 0.846416 18.6283 1.20575C18.9876 1.56508 19.167 1.99653 19.1663 2.50008V13.5001C19.1663 14.0042 18.9867 14.436 18.6273 14.7953C18.268 15.1547 17.8366 15.334 17.333 15.3334H2.66634ZM9.54134 12.1251L8.25801 10.7959L10.1601 8.91675H0.833009V7.08342H10.1601L8.25801 5.20425L9.54134 3.87508L13.6663 8.00008L9.54134 12.1251Z" fill="#8E8E8F"/>
</svg>
